<svg id="Capa_1" data-name="Capa 1" xmlns="http://www.w3.org/2000/svg" viewBox="0 0 97.13 25.64"><path d="M91.2,28.32H10.8A8.38,8.38,0,0,1,2.43,20v-8.9A8.38,8.38,0,0,1,10.8,2.68H91.2a8.38,8.38,0,0,1,8.37,8.37V20A8.38,8.38,0,0,1,91.2,28.32ZM10.8,4.77a6.28,6.28,0,0,0-6.27,6.28V20a6.28,6.28,0,0,0,6.27,6.28H91.2A6.28,6.28,0,0,0,97.47,20v-8.9A6.28,6.28,0,0,0,91.2,4.77Z" transform="translate(-2.43 -2.68)"/><path d="M13.48,19.62,11.8,13.7h-.05c.08,1,.12,1.79.12,2.35v3.57h-2V11.4h3l1.71,5.84h0L16.3,11.4h3v8.22H17.22V16c0-.18,0-.39,0-.62s0-.79.08-1.68h0L15.6,19.62Z" transform="translate(-2.43 -2.68)"/><path d="M25.92,19.62H21V11.4h4.88v1.78H23.26v1.29h2.47v1.79H23.26v1.55h2.66Z" transform="translate(-2.43 -2.68)"/><path d="M35.4,19.62,35,18.08H32.32l-.41,1.54H29.47l2.68-8.26h3l2.71,8.26Zm-.86-3.36-.36-1.35q-.12-.45-.3-1.17c-.12-.47-.2-.82-.23-1,0,.19-.1.5-.2.94s-.32,1.31-.66,2.6Z" transform="translate(-2.43 -2.68)"/><path d="M38.72,11.4h2.87a4.9,4.9,0,0,1,2.49.49,1.7,1.7,0,0,1,.81,1.55,2,2,0,0,1-.35,1.19,1.66,1.66,0,0,1-.93.63v.05a1.9,1.9,0,0,1,1.1.68,2,2,0,0,1,.35,1.22A2.11,2.11,0,0,1,44.22,19a3.72,3.72,0,0,1-2.3.64h-3.2Zm2.22,3.15h.67a1.21,1.21,0,0,0,.74-.19.7.7,0,0,0,.27-.59q0-.69-1-.69h-.63Zm0,1.63v1.73h.79c.69,0,1-.3,1-.88a.76.76,0,0,0-.28-.63,1.28,1.28,0,0,0-.81-.22Z" transform="translate(-2.43 -2.68)"/><path d="M51.86,17.12a2.4,2.4,0,0,1-.38,1.36,2.5,2.5,0,0,1-1.12.92,4.16,4.16,0,0,1-1.72.33,6.75,6.75,0,0,1-1.38-.11,5.34,5.34,0,0,1-1.16-.4v-2a7.12,7.12,0,0,0,1.33.5,4.54,4.54,0,0,0,1.26.19,1.23,1.23,0,0,0,.72-.17.53.53,0,0,0,.23-.45.48.48,0,0,0-.09-.29,1,1,0,0,0-.3-.26c-.14-.08-.5-.26-1.09-.53a5.45,5.45,0,0,1-1.21-.7,2.25,2.25,0,0,1-.6-.79,2.62,2.62,0,0,1-.19-1.05A2.13,2.13,0,0,1,47,11.91a3.67,3.67,0,0,1,2.27-.63,6.24,6.24,0,0,1,2.6.59l-.68,1.71a4.94,4.94,0,0,0-2-.52,1,1,0,0,0-.63.15.44.44,0,0,0-.19.37.54.54,0,0,0,.25.44,9.27,9.27,0,0,0,1.35.7,3.69,3.69,0,0,1,1.48,1A2.22,2.22,0,0,1,51.86,17.12Z" transform="translate(-2.43 -2.68)"/><path d="M56.77,19.62H54.54V13.21h-2V11.4h6.24v1.81h-2Z" transform="translate(-2.43 -2.68)"/><path d="M64.83,19.62H59.94V11.4h4.89v1.78H62.17v1.29h2.46v1.79H62.17v1.55h2.66Z" transform="translate(-2.43 -2.68)"/><path d="M74.1,19.62H71.19l-3-5.79h-.05c.07.91.11,1.6.11,2.08v3.71h-2V11.4h2.9l3,5.71h0c0-.83-.08-1.49-.08-2V11.4h2Z" transform="translate(-2.43 -2.68)"/><path d="M79.18,14.81h3.55v4.43a9.73,9.73,0,0,1-3.18.49,3.82,3.82,0,0,1-2.94-1.1,4.41,4.41,0,0,1-1-3.14,4.11,4.11,0,0,1,1.14-3.1,4.37,4.37,0,0,1,3.18-1.11,7.64,7.64,0,0,1,1.47.14,6.29,6.29,0,0,1,1.2.38l-.7,1.74a4.39,4.39,0,0,0-2-.44,1.88,1.88,0,0,0-1.51.63,2.79,2.79,0,0,0-.53,1.81,2.78,2.78,0,0,0,.48,1.76,1.68,1.68,0,0,0,1.39.61,4.3,4.3,0,0,0,.91-.1V16.52H79.18Z" transform="translate(-2.43 -2.68)"/><path d="M92.1,15.5a4.42,4.42,0,0,1-1,3.15,4.62,4.62,0,0,1-5.94,0,4.42,4.42,0,0,1-1-3.16,4.41,4.41,0,0,1,1-3.14,4.67,4.67,0,0,1,6,0A4.43,4.43,0,0,1,92.1,15.5Zm-5.66,0c0,1.59.56,2.38,1.66,2.38a1.4,1.4,0,0,0,1.25-.58,3.09,3.09,0,0,0,.41-1.8,3.24,3.24,0,0,0-.41-1.82,1.43,1.43,0,0,0-1.24-.59C87,13.09,86.44,13.89,86.44,15.5Z" transform="translate(-2.43 -2.68)"/></svg>