<svg xmlns="http://www.w3.org/2000/svg" xmlns:xlink="http://www.w3.org/1999/xlink" version="1.1" x="0px" y="0px" viewBox="0 0 100 125" style="enable-background:new 0 0 100 100;" xml:space="preserve"><g><path d="M40.5,34.8c1.1,0,2-0.9,2-2s-0.9-2-2-2H14.2c-1.1,0-2,0.9-2,2v52.7c0,1.1,0.9,2,2,2h52.7c1.1,0,2-0.9,2-2V59.1   c0-1.1-0.9-2-2-2s-2,0.9-2,2v24.3H16.2V34.8H40.5z"/><path d="M75.4,13.1c-0.8-0.8-2-0.8-2.8,0l-8.2,8.2L36.1,49.7c-0.3,0.3-0.5,0.7-0.6,1.2l-1.6,13.5c-0.1,0.6,0.1,1.2,0.6,1.7   c0.4,0.4,0.9,0.6,1.4,0.6c0.1,0,0.2,0,0.2,0l13.5-1.6c0.4-0.1,0.9-0.3,1.2-0.6L79,36l8.2-8.3c0.8-0.8,0.8-2,0-2.8L75.4,13.1z    M48.4,61l-10.2,1.2L39.4,52l26.4-26.4l9,9L48.4,61z M77.6,31.8l-9-9l5.4-5.4l9,9L77.6,31.8z"/></g><text x="0" y="115" fill="#000000" font-size="5px" font-weight="bold" font-family="'Helvetica Neue', Helvetica, Arial-Unicode, Arial, Sans-serif">Created by Tawny Whatmore</text><text x="0" y="120" fill="#000000" font-size="5px" font-weight="bold" font-family="'Helvetica Neue', Helvetica, Arial-Unicode, Arial, Sans-serif">from the Noun Project</text></svg>