<svg xmlns="http://www.w3.org/2000/svg" xmlns:xlink="http://www.w3.org/1999/xlink" version="1.1" x="0px" y="0px" viewBox="0 0 100 125" style="enable-background:new 0 0 100 100;" xml:space="preserve"><g><path d="M25.5,82.3h18h13.1h18c1.1,0,2-0.9,2-2V46.6h2.7c0.8,0,1.6-0.5,1.9-1.3c0.3-0.8,0-1.7-0.6-2.2L50.7,18.2   c-0.8-0.6-1.8-0.6-2.6,0L19.5,43.1c-0.6,0.5-0.9,1.4-0.6,2.2c0.3,0.8,1,1.3,1.9,1.3h2.7v33.7C23.5,81.4,24.4,82.3,25.5,82.3z    M45.5,78.3V61.9h9.1v16.3H45.5z M49.5,22.4l24.4,20.3c-0.8,0.3-1.3,1-1.3,1.9c0,0.2,0,0.4,0.1,0.6c-0.1,0.2-0.1,0.4-0.1,0.6v32.5   h-14V59.9c0-1.1-0.9-2-2-2H43.5c-1.1,0-2,0.9-2,2v18.3h-14V45.8c0-0.2,0-0.4-0.1-0.6c0.1-0.2,0.1-0.4,0.1-0.6   c0-0.9-0.6-1.7-1.5-1.9L49.5,22.4z"/></g><text x="0" y="115" fill="#000000" font-size="5px" font-weight="bold" font-family="'Helvetica Neue', Helvetica, Arial-Unicode, Arial, Sans-serif">Created by Tawny Whatmore</text><text x="0" y="120" fill="#000000" font-size="5px" font-weight="bold" font-family="'Helvetica Neue', Helvetica, Arial-Unicode, Arial, Sans-serif">from the Noun Project</text></svg>