<svg xmlns="http://www.w3.org/2000/svg" xmlns:xlink="http://www.w3.org/1999/xlink" version="1.1" x="0px" y="0px" viewBox="0 0 100 125" style="enable-background:new 0 0 100 100;" xml:space="preserve"><g><path d="M60.9,31.3c0-6-4.9-10.9-10.9-10.9s-10.9,4.9-10.9,10.9S44,42.2,50,42.2S60.9,37.3,60.9,31.3z M43.1,31.3   c0-3.8,3.1-6.9,6.9-6.9s6.9,3.1,6.9,6.9s-3.1,6.9-6.9,6.9S43.1,35.1,43.1,31.3z"/><path d="M50,94.2c24.9,0,45-3.9,45-8.8c0-4.2-15.4-7.8-35.9-8.6c7-14,16.5-34.4,16.5-43.1C75.7,19.5,64.2,8,50,8   S24.3,19.5,24.3,33.7c0,8.6,9.5,29.1,16.5,43.1C20.4,77.6,5,81.1,5,85.4C5,90.2,25.1,94.2,50,94.2z M50,12   c11.9,0,21.7,9.7,21.7,21.7c0,10.4-16.2,41.8-21.7,52c-5.4-10.2-21.7-41.7-21.7-52C28.3,21.7,38.1,12,50,12z"/></g><text x="0" y="115" fill="#000000" font-size="5px" font-weight="bold" font-family="'Helvetica Neue', Helvetica, Arial-Unicode, Arial, Sans-serif">Created by Tawny Whatmore</text><text x="0" y="120" fill="#000000" font-size="5px" font-weight="bold" font-family="'Helvetica Neue', Helvetica, Arial-Unicode, Arial, Sans-serif">from the Noun Project</text></svg>