<svg xmlns="http://www.w3.org/2000/svg" xmlns:xlink="http://www.w3.org/1999/xlink" version="1.1" x="0px" y="0px" viewBox="0 0 24 30" style="enable-background:new 0 0 24 24;" xml:space="preserve"><g><path d="M11.997,1.854c0.574,0,1.041,0.467,1.041,1.041h1.041c0-1.148-0.933-2.081-2.081-2.081c-1.148,0-2.081,0.933-2.081,2.081   h1.041C10.956,2.321,11.423,1.854,11.997,1.854z"/><path d="M11.993,22.146c-0.658,0-1.263-0.229-1.663-0.63c-0.19-0.19-0.415-0.505-0.415-0.93l-1.041-0.002   c-0.001,0.61,0.254,1.202,0.719,1.668c0.593,0.594,1.468,0.935,2.399,0.935c1.721,0,3.123-1.167,3.126-2.601l-1.041-0.002   C14.076,21.446,13.141,22.146,11.993,22.146z"/><path d="M21.351,17.854c0.067-0.731,0.146-1.836-0.333-2.72l-0.083-0.087c-0.143-0.17-0.312-0.327-0.491-0.492   c-0.7-0.649-1.659-1.538-1.865-4.152C18.3,6.93,15.949,3.415,11.997,3.415c-3.952,0-6.303,3.515-6.582,6.988   c-0.207,2.613-1.165,3.502-1.865,4.151c-0.179,0.166-0.348,0.323-0.491,0.492l-0.059,0.087c-0.479,0.884-0.424,1.988-0.356,2.72   c0.018,0.193-0.012,0.361-0.012,0.492v0.305L2.944,18.8c2.202,1.231,5.088,1.804,9.03,1.804c3.943,0,6.862-0.573,9.065-1.804   l0.324-0.149v-0.305C21.363,18.215,21.333,18.046,21.351,17.854z M20.268,17.758c-0.009,0.095-0.017,0.185-0.023,0.269   c-2.01,1.047-4.642,1.536-8.247,1.536c-3.605,0-6.237-0.489-8.248-1.536c-0.007-0.084-0.015-0.174-0.023-0.269   c-0.058-0.626-0.136-1.477,0.164-2.081c0.098-0.109,0.224-0.226,0.368-0.36c0.779-0.722,1.956-1.814,2.195-4.831   c0.233-2.904,2.068-6.03,5.544-6.03s5.311,3.126,5.544,6.03c0.239,3.018,1.417,4.11,2.196,4.832c0.144,0.134,0.27,0.251,0.368,0.36   C20.404,16.28,20.325,17.132,20.268,17.758z"/></g><text x="0" y="39" fill="#000000" font-size="5px" font-weight="bold" font-family="'Helvetica Neue', Helvetica, Arial-Unicode, Arial, Sans-serif">Created by Storm Icons</text><text x="0" y="44" fill="#000000" font-size="5px" font-weight="bold" font-family="'Helvetica Neue', Helvetica, Arial-Unicode, Arial, Sans-serif">from the Noun Project</text></svg>