<?xml version="1.0" encoding="utf-8"?>
<!-- Generator: Adobe Illustrator 24.0.3, SVG Export Plug-In . SVG Version: 6.00 Build 0)  -->
<svg version="1.1" id="Capa_1" xmlns="http://www.w3.org/2000/svg" xmlns:xlink="http://www.w3.org/1999/xlink" x="0px" y="0px"
	 viewBox="0 0 64 80" style="enable-background:new 0 0 64 80;" xml:space="preserve">
<path d="M31.6,9C18.8,9,8.4,19.4,8.4,32.2s10.4,23.2,23.2,23.2c12.8,0,23.2-10.4,23.2-23.2S44.5,9,31.6,9z M52.1,32.2
	c0,2.2-0.4,4.3-1,6.3c-1,0-1.8-0.5-2.5-1.4c-1.5-1.9-2-5.3-0.9-7.3c1.3-2.5,1.4-4.1-1-7.3c-0.2-0.3-0.3-0.6-0.3-0.7
	c0.2-0.5,1.1-1,2.1-1.3C50.8,23.8,52.1,27.9,52.1,32.2z M44.4,21c-0.2,0.6-0.3,1.6,0.6,2.8c2,2.6,1.6,3.4,0.8,5
	c-1.4,2.8-0.9,7.1,1.2,9.7c1,1.2,2.1,1.9,3.4,2.2c-0.8,1.7-1.8,3.3-3,4.8c-2.2-2.2-4.7-4.3-6.1-4c-0.4,0.1-0.9,0.3-1.5,0.5
	C38,42.6,36.5,43,35.3,42c-1.2-0.9-2.6-1.2-4.1-0.7c-1.8,0.6-3.3,2.2-3.8,4c-0.2,0.6-0.3,1.4,0.1,2.1c0.5,0.7,1.3,0.9,2,1
	c0.6,0.1,1.2,0.2,1.8,0.6c0.8,0.6,1.3,1.7,1.3,2.8c0,0.3,0,0.6-0.1,0.9c-0.3,0-0.5,0-0.8,0c-11.3,0-20.5-9.2-20.5-20.5
	c0-2.3,0.4-4.5,1.1-6.5c0.5,0.8,1.2,1.4,1.8,2.1c0.9,0.9,1.8,1.8,2.3,2.9c0.6,1.4,0.3,3.4,0,5.2c-0.3,2.1-0.6,4.1,0.9,4.9
	c0.6,0.3,1.5,0.5,2.7,0.5c2.2,0,4.8-0.6,5.9-2c0.4-0.5,1.1-1.8-0.5-3.5c-0.6-0.7-0.9-1.2-0.8-1.5c0.3-1,3.5-2.1,6.2-3
	c3.7-1.3,5.7-2.9,5.7-4.6c0-0.5-0.2-1.7-2-2.3c-1.1-0.4-1.6-1.2-1-4.1c0.5-2.4,0.2-3.1-0.8-5.1l-0.3-0.6c-0.3-0.7-0.8-1.1-1.4-1.3
	c-1-0.3-1.9,0.3-2.8,0.8c-0.8,0.5-1.5,1-2.3,0.9c-0.9,0-1.6-0.8-2.2-1.5c2.5-1.1,5.2-1.6,8.1-1.6c6.1,0,11.7,2.7,15.4,7
	C46,19.1,44.8,19.9,44.4,21z M32.6,47.3c-1-0.8-2-0.9-2.8-1.1c-0.1,0-0.3,0-0.4-0.1c0-0.1,0-0.2,0.1-0.3c0.3-1.1,1.3-2.2,2.4-2.5
	c0.7-0.2,1.4-0.1,2,0.3c2.3,1.8,5,0.8,6.5,0.2c0.4-0.1,0.8-0.3,1-0.4c0.6,0.1,2.5,1.7,4.3,3.5c-3,2.8-6.8,4.8-11,5.4
	c0-0.2,0-0.5,0-0.7C34.7,50.1,33.9,48.3,32.6,47.3z M21.6,14.3c0.8,1.2,2.2,2.6,4.1,2.7c1.5,0.1,2.6-0.7,3.6-1.3
	c0.3-0.2,0.8-0.5,1-0.6c0,0,0,0.1,0.1,0.1l0.3,0.6c0.8,1.7,1,1.9,0.6,3.6c-0.3,1.5-1.2,5.5,2.4,6.7c0.3,0.1,0.5,0.2,0.5,0.2
	c-0.1,0.3-0.9,1.4-4.2,2.5c-3.9,1.3-7,2.4-7.6,4.6c-0.3,1.1,0.2,2.3,1.4,3.6c0.1,0.1,0.5,0.5,0.4,0.7c-0.7,1-4.7,1.4-5.7,0.9
	c-0.2-0.4,0-1.7,0.2-2.6c0.3-1.9,0.6-4.3-0.2-6.3c-0.6-1.5-1.8-2.7-2.8-3.7c-1.3-1.3-2.1-2.2-2.1-3.5C15.3,19.2,18.1,16.3,21.6,14.3
	z"/>
</svg>
