<svg xmlns="http://www.w3.org/2000/svg" data-name="Layer 1" viewBox="0 0 1024 1280" x="0px" y="0px"><title>icon-01</title><path fill="#000000" d="M201.910857 201.142857V548.571429a18.285714 18.285714 0 1 1-36.571428 0V182.857143a18.285714 18.285714 0 0 1 18.285714-18.285714H841.142857a18.285714 18.285714 0 0 1 18.285714 18.285714v658.322286a18.285714 18.285714 0 0 1-18.285714 18.285714H182.857143a18.285714 18.285714 0 0 1-18.285714-18.395429l0.768-146.285714a18.285714 18.285714 0 0 1 5.339428-12.8l182.089143-182.857143a18.285714 18.285714 0 0 1 25.892571-0.036571L475.428571 595.858286l243.053715-243.090286a18.285714 18.285714 0 0 1 25.892571 25.892571l-256 256a18.285714 18.285714 0 0 1-25.892571 0l-96.731429-96.768-163.84 164.571429-0.658286 120.429714H822.857143V201.142857H201.910857z"/><text x="0" y="1039" fill="#000000" font-size="5px" font-weight="bold" font-family="'Helvetica Neue', Helvetica, Arial-Unicode, Arial, Sans-serif">Created by Lion Kuil</text><text x="0" y="1044" fill="#000000" font-size="5px" font-weight="bold" font-family="'Helvetica Neue', Helvetica, Arial-Unicode, Arial, Sans-serif">from the Noun Project</text></svg>