<svg xmlns="http://www.w3.org/2000/svg" xmlns:xlink="http://www.w3.org/1999/xlink" version="1.1" x="0px" y="0px" viewBox="0 0 100 125" style="enable-background:new 0 0 100 100;" xml:space="preserve"><g><path d="M43.1,64.8c5.1,0,10-1.8,13.9-5l18.3,18.3c0.4,0.4,0.9,0.6,1.4,0.6s1-0.2,1.4-0.6c0.8-0.8,0.8-2,0-2.8L59.8,57   c3.3-3.9,5-8.8,5-13.9c0-5.8-2.3-11.3-6.4-15.4c-4.1-4.1-9.6-6.4-15.4-6.4c-5.8,0-11.3,2.3-15.4,6.4c-4.1,4.1-6.4,9.6-6.4,15.4   c0,5.8,2.3,11.3,6.4,15.4C31.8,62.5,37.2,64.8,43.1,64.8z M30.5,30.5c3.4-3.4,7.8-5.2,12.6-5.2s9.2,1.8,12.6,5.2s5.2,7.8,5.2,12.6   s-1.8,9.2-5.2,12.6s-7.8,5.2-12.6,5.2s-9.2-1.8-12.6-5.2s-5.2-7.8-5.2-12.6S27.2,33.9,30.5,30.5z"/></g><text x="0" y="115" fill="#000000" font-size="5px" font-weight="bold" font-family="'Helvetica Neue', Helvetica, Arial-Unicode, Arial, Sans-serif">Created by Tawny Whatmore</text><text x="0" y="120" fill="#000000" font-size="5px" font-weight="bold" font-family="'Helvetica Neue', Helvetica, Arial-Unicode, Arial, Sans-serif">from the Noun Project</text></svg>