<?xml version="1.0" encoding="utf-8"?>
<!-- Generator: Adobe Illustrator 24.0.3, SVG Export Plug-In . SVG Version: 6.00 Build 0)  -->
<svg version="1.1" id="Capa_1" xmlns="http://www.w3.org/2000/svg" xmlns:xlink="http://www.w3.org/1999/xlink" x="0px" y="0px"
	 viewBox="0 0 1024 1280" style="enable-background:new 0 0 1024 1280;" xml:space="preserve">
<style type="text/css">
	.st0{font-family:'HelveticaNeue-Bold';}
	.st1{font-size:5px;}
</style>
<title>icon-01</title>
<text transform="matrix(1 0 0 1 0 1039)" class="st0 st1">Created by Lion Kuil</text>
<text transform="matrix(1 0 0 1 0 1044)" class="st0 st1">from the Noun Project</text>
<g>
	<g>
		<g>
			<path d="M767,905H255c-15,0-27.3-12.2-27.3-27.3v-512c0-7.3,2.9-14.1,8-19.3c5.2-5.1,12-8,19.3-8c0,0,0,0,0,0
				c15,0,27.2,12.2,27.3,27.3v484.7h457.4V365.7c0-15,12.2-27.3,27.3-27.3c0,0,0,0,0,0c15,0,27.3,12.2,27.3,27.3v512
				C794.3,892.8,782,905,767,905z M584.1,758.7c-15,0-27.3-12.2-27.3-27.3V438.9c0-7.3,2.8-14.1,8-19.3c5.1-5.2,12-8,19.3-8
				c0,0,0,0,0,0c15,0,27.3,12.2,27.3,27.3v292.6C611.4,746.5,599.2,758.7,584.1,758.7C584.2,758.7,584.2,758.7,584.1,758.7z
				 M437.9,758.7c-15,0-27.3-12.2-27.3-27.3V438.9c0-7.3,2.8-14.1,8-19.3c5.1-5.2,12-8,19.3-8c0,0,0,0,0,0c15,0,27.3,12.2,27.3,27.3
				v292.6C465.2,746.5,452.9,758.7,437.9,758.7C437.9,758.7,437.9,758.7,437.9,758.7z M657.3,283.3c-0.3,0-0.6,0-1,0h-511
				c0,0,0,0,0,0h0c-7.3,0-14.1-2.8-19.3-8c-5.2-5.2-8-12-8-19.3c0-7.3,2.8-14.1,8-19.3c5.2-5.2,12-8,19.3-8h192.1v-82.4
				c0-15,12.2-27.3,27.3-27.3h292.6c15,0,27.3,12.2,27.3,27.3v82.4h192.1c15,0,27.3,12.2,27.3,27.3c0,15-12.2,27.3-27.3,27.3H658.2
				C657.9,283.3,657.6,283.3,657.3,283.3z M392,228.7h238v-55.1H392V228.7z"/>
		</g>
	</g>
</g>
</svg>
